{
  "accessors": [
    {
      "bufferView": 2,
      "componentType": 5126,
      "count": 1816,
      "max": [
        1.0610369443893433,
        1.0173923969268799,
        0.9505823254585266
      ],
      "min": [
        -1.0605268478393555,
        -1.0173923969268799,
        -0.9533944129943848
      ],
      "type": "VEC3"
    },
    {
      "bufferView": 2,
      "byteOffset": 21792,
      "componentType": 5126,
      "count": 1816,
      "max": [
        0.999890923500061,
        0.9999997615814209,
        1.0
      ],
      "min": [
        -0.999890923500061,
        -0.9982870817184448,
        -1.0
      ],
      "type": "VEC3"
    },
    {
      "bufferView": 1,
      "componentType": 5126,
      "count": 1816,
      "max": [
        0.9980024695396423,
        0.9934033751487732
      ],
      "min": [
        0.0022553878370672464,
        0.0032304900232702494
      ],
      "type": "VEC2"
    },
    {
      "bufferView": 0,
      "componentType": 5125,
      "count": 6300,
      "type": "SCALAR"
    },
    {
      "bufferView": 2,
      "byteOffset": 43584,
      "componentType": 5126,
      "count": 216,
      "max": [
        1.0,
        1.0,
        3.201566219329834
      ],
      "min": [
        -1.4047868251800537,
        -1.0,
        0.0
      ],
      "type": "VEC3"
    },
    {
      "bufferView": 2,
      "byteOffset": 46176,
      "componentType": 5126,
      "count": 216,
      "max": [
        0.9962685704231262,
        0.9988475441932678,
        0.9738439321517944
      ],
      "min": [
        -0.9902644157409668,
        -0.9988475441932678,
        -0.44768962264060974
      ],
      "type": "VEC3"
    },
    {
      "bufferView": 1,
      "byteOffset": 14528,
      "componentType": 5126,
      "count": 216,
      "max": [
        0.9926139712333679,
        0.9890334606170654
      ],
      "min": [
        0.006963870022445917,
        0.016179490834474564
      ],
      "type": "VEC2"
    },
    {
      "bufferView": 0,
      "byteOffset": 25200,
      "componentType": 5125,
      "count": 624,
      "type": "SCALAR"
    },
    {
      "bufferView": 3,
      "componentType": 5126,
      "count": 39,
      "max": [
        0.6333333253860474
      ],
      "min": [
        0.0
      ],
      "type": "SCALAR"
    },
    {
      "bufferView": 4,
      "componentType": 5126,
      "count": 39,
      "max": [
        66.29220581054688,
        16.186508178710938,
        44.96979522705078
      ],
      "min": [
        -22.45547866821289,
        -54.92832565307617,
        -19.16410255432129
      ],
      "type": "VEC3"
    }
  ],
  "animations": [
    {
      "channels": [
        {
          "sampler": 0,
          "target": {
            "node": 10,
            "path": "translation"
          }
        }
      ],
      "name": "Point|PointAction",
      "samplers": [
        {
          "input": 8,
          "interpolation": "LINEAR",
          "output": 9
        }
      ]
    }
  ],
  "asset": {
    "extras": {
      "author": "nicollebickel (https://sketchfab.com/nicollebickel)",
      "license": "CC-BY-4.0 (http://creativecommons.org/licenses/by/4.0/)",
      "source": "https://sketchfab.com/3d-models/halloween-pumpkin-76dddc53fce64f45bd74424f5a1f61ca",
      "title": "Halloween Pumpkin"
    },
    "generator": "Sketchfab-12.66.0",
    "version": "2.0"
  },
  "bufferViews": [
    {
      "buffer": 0,
      "byteLength": 27696,
      "name": "floatBufferViews",
      "target": 34963
    },
    {
      "buffer": 0,
      "byteLength": 16256,
      "byteOffset": 27696,
      "byteStride": 8,
      "name": "floatBufferViews",
      "target": 34962
    },
    {
      "buffer": 0,
      "byteLength": 48768,
      "byteOffset": 43952,
      "byteStride": 12,
      "name": "floatBufferViews",
      "target": 34962
    },
    {
      "buffer": 0,
      "byteLength": 156,
      "byteOffset": 92720,
      "name": "floatBufferViews"
    },
    {
      "buffer": 0,
      "byteLength": 468,
      "byteOffset": 92876,
      "byteStride": 12,
      "name": "floatBufferViews"
    }
  ],
  "buffers": [
    {
      "byteLength": 93344,
      "uri": "scene.bin"
    }
  ],
  "images": [
    {
      "uri": "textures/Material.001_baseColor.png"
    },
    {
      "uri": "textures/Material.002_baseColor.png"
    }
  ],
  "materials": [
    {
      "doubleSided": true,
      "name": "Material.001",
      "pbrMetallicRoughness": {
        "baseColorTexture": {
          "index": 0
        },
        "metallicFactor": 0.0,
        "roughnessFactor": 0.9255202035791805
      }
    },
    {
      "doubleSided": true,
      "name": "Material.002",
      "pbrMetallicRoughness": {
        "baseColorTexture": {
          "index": 1
        },
        "metallicFactor": 0.0,
        "roughnessFactor": 0.9541704248575464
      }
    }
  ],
  "meshes": [
    {
      "name": "Sphere_Material.001_0",
      "primitives": [
        {
          "attributes": {
            "NORMAL": 1,
            "POSITION": 0,
            "TEXCOORD_0": 2
          },
          "indices": 3,
          "material": 0,
          "mode": 4
        }
      ]
    },
    {
      "name": "Circle_Material.002_0",
      "primitives": [
        {
          "attributes": {
            "NORMAL": 5,
            "POSITION": 4,
            "TEXCOORD_0": 6
          },
          "indices": 7,
          "material": 1,
          "mode": 4
        }
      ]
    }
  ],
  "nodes": [
    {
      "children": [
        1
      ],
      "matrix": [
        1.0,
        0.0,
        0.0,
        0.0,
        0.0,
        2.220446049250313e-16,
        -1.0,
        0.0,
        0.0,
        1.0,
        2.220446049250313e-16,
        0.0,
        0.0,
        0.0,
        0.0,
        1.0
      ],
      "name": "Sketchfab_model"
    },
    {
      "children": [
        2
      ],
      "matrix": [
        1.0,
        0.0,
        0.0,
        0.0,
        0.0,
        0.0,
        1.0,
        0.0,
        0.0,
        -1.0,
        0.0,
        0.0,
        0.0,
        0.0,
        0.0,
        1.0
      ],
      "name": "3d045bb1cf2b411ba2ae7fb00fb05b71.fbx"
    },
    {
      "children": [
        3
      ],
      "name": "Object_2"
    },
    {
      "children": [
        4,
        6,
        8,
        10,
        13,
        16
      ],
      "name": "RootNode"
    },
    {
      "children": [
        5
      ],
      "name": "Camera",
      "rotation": [
        -0.02391059882938862,
        0.5819158554077148,
        -0.03337903693318367,
        0.812211811542511
      ],
      "scale": [
        100.0,
        100.0,
        100.0
      ],
      "translation": [
        -141.26808166503906,
        -26.409244537353516,
        428.7205810546875
      ]
    },
    {
      "name": "Object_5"
    },
    {
      "children": [
        7
      ],
      "name": "Sphere",
      "rotation": [
        -0.7325618267059326,
        0.0,
        0.0,
        0.6807004809379578
      ],
      "scale": [
        100.0,
        100.0,
        72.48683166503906
      ],
      "translation": [
        0.0,
        -13.604829788208008,
        2.204188823699951
      ]
    },
    {
      "mesh": 0,
      "name": "Sphere_Material.001_0"
    },
    {
      "children": [
        9
      ],
      "name": "Circle",
      "rotation": [
        -0.7325618863105774,
        0.0,
        0.0,
        0.680700421333313
      ],
      "scale": [
        11.887752532958984,
        11.887752532958984,
        11.887752532958984
      ],
      "translation": [
        0.06569623947143555,
        46.49525833129883,
        0.9316114783287048
      ]
    },
    {
      "mesh": 1,
      "name": "Circle_Material.002_0"
    },
    {
      "children": [
        11
      ],
      "name": "Point",
      "rotation": [
        -3.774895063202166e-08,
        -0.0,
        0.0,
        1.0
      ],
      "scale": [
        100.0,
        100.0,
        100.0
      ],
      "translation": [
        -4.123208045959473,
        -15.597152709960938,
        6.644287586212158
      ]
    },
    {
      "children": [
        12
      ],
      "matrix": [
        1.0,
        0.0,
        0.0,
        0.0,
        0.0,
        2.220446049250313e-16,
        1.0,
        0.0,
        0.0,
        -1.0,
        2.220446049250313e-16,
        0.0,
        0.0,
        0.0,
        0.0,
        1.0
      ],
      "name": "Object_11"
    },
    {
      "name": "Object_12"
    },
    {
      "children": [
        14
      ],
      "name": "Point.001",
      "rotation": [
        -3.774895063202166e-08,
        -0.0,
        0.0,
        1.0
      ],
      "scale": [
        100.0,
        100.0,
        100.0
      ],
      "translation": [
        -13.699161529541016,
        39.94398880004883,
        318.45880126953125
      ]
    },
    {
      "children": [
        15
      ],
      "matrix": [
        1.0,
        0.0,
        0.0,
        0.0,
        0.0,
        2.220446049250313e-16,
        1.0,
        0.0,
        0.0,
        -1.0,
        2.220446049250313e-16,
        0.0,
        0.0,
        0.0,
        0.0,
        1.0
      ],
      "name": "Object_14"
    },
    {
      "name": "Object_15"
    },
    {
      "children": [
        17
      ],
      "name": "Point.002",
      "rotation": [
        -0.6605930924415588,
        -0.0,
        0.0,
        0.7507441639900208
      ],
      "scale": [
        100.0,
        100.0,
        100.0
      ],
      "translation": [
        -4.123208045959473,
        221.9312744140625,
        -87.17980194091797
      ]
    },
    {
      "children": [
        18
      ],
      "matrix": [
        1.0,
        0.0,
        0.0,
        0.0,
        0.0,
        2.220446049250313e-16,
        1.0,
        0.0,
        0.0,
        -1.0,
        2.220446049250313e-16,
        0.0,
        0.0,
        0.0,
        0.0,
        1.0
      ],
      "name": "Object_17"
    },
    {
      "name": "Object_18"
    }
  ],
  "samplers": [
    {
      "magFilter": 9729,
      "minFilter": 9987,
      "wrapS": 10497,
      "wrapT": 10497
    }
  ],
  "scene": 0,
  "scenes": [
    {
      "name": "Sketchfab_Scene",
      "nodes": [
        0
      ]
    }
  ],
  "textures": [
    {
      "sampler": 0,
      "source": 0
    },
    {
      "sampler": 0,
      "source": 1
    }
  ]
}
